<?xml version="1.0" encoding="utf-8"?>

<svg version="1.0" id="Capa_1" xmlns="http://www.w3.org/2000/svg" xmlns:xlink="http://www.w3.org/1999/xlink" x="0px" y="0px"
	 viewBox="0 0 172.04 64.16" style="enable-background:new 0 0 172.04 64.16;" xml:space="preserve">
<style type="text/css">
	.st0{fill:#00A1F1;}
</style>
<g>
	<g>
		<g>
			<g>
				<path class="st0" d="M99.2,29c-0.1,0.53-0.23,1.11-0.37,1.76c-0.15,0.65-0.35,1.3-0.62,1.95c-0.27,0.65-0.6,1.3-0.98,1.94
					c-0.39,0.65-0.88,1.24-1.46,1.76c-0.69,0.61-1.43,1.09-2.23,1.46c-0.8,0.36-1.6,0.64-2.41,0.82c-0.81,0.18-1.59,0.3-2.35,0.36
					c-0.76,0.06-1.43,0.09-1.99,0.09c-0.61,0-1.28-0.03-2.02-0.09c-0.74-0.06-1.46-0.18-2.18-0.36c-0.71-0.18-1.39-0.46-2.03-0.82
					c-0.64-0.37-1.18-0.85-1.63-1.46c-0.8-1.09-1.16-2.31-1.09-3.65c0.08-1.34,0.23-2.59,0.46-3.77l5.13-26.5H75.4l-5.34,27.59
					c-0.35,1.82-0.5,3.68-0.44,5.56c0.06,1.88,0.74,3.66,2.04,5.32c0.84,1.09,1.86,1.95,3.06,2.55c1.2,0.61,2.44,1.06,3.72,1.37
					c1.28,0.3,2.54,0.49,3.78,0.55c1.24,0.06,2.35,0.09,3.33,0.09c0.97,0,2.09-0.03,3.36-0.09c1.27-0.06,2.6-0.24,4-0.55
					c1.4-0.3,2.81-0.76,4.24-1.37c1.43-0.61,2.78-1.46,4.05-2.55c1.94-1.66,3.31-3.43,4.1-5.32c0.79-1.88,1.36-3.74,1.71-5.56
					l5.34-27.59h-8.02L99.2,29z"/>
				<path class="st0" d="M170.77,3.35c-1.12-0.89-2.68-1.34-4.66-1.34c-0.77,0-1.51,0.06-2.22,0.18c-0.71,0.12-1.43,0.38-2.15,0.76
					c-0.72,0.39-1.43,0.93-2.11,1.64c-0.68,0.71-1.37,1.67-2.05,2.89l-16.49,28.38c-0.29,0.45-0.55,0.82-0.8,1.12
					c-0.24,0.3-0.46,0.46-0.67,0.46c-0.2,0-0.37-0.15-0.49-0.46c-0.12-0.3-0.24-0.68-0.36-1.12l-5.51-28.38
					c-0.14-0.73-0.33-1.43-0.57-2.1c-0.24-0.67-0.58-1.25-1.03-1.76s-1.06-0.9-1.84-1.19c-0.78-0.28-1.77-0.42-2.99-0.42
					c-0.32,0-0.87,0.03-1.63,0.09c-0.76,0.06-1.56,0.27-2.4,0.64c-0.84,0.37-1.64,0.92-2.39,1.67c-0.75,0.75-1.26,1.81-1.53,3.19
					l-7.24,37.44h8.02l6.22-33.12c0.02-0.08,0.09-0.31,0.23-0.7c0.13-0.38,0.36-0.58,0.69-0.58c0.2,0,0.37,0.17,0.51,0.52
					c0.14,0.34,0.22,0.64,0.25,0.88l5.39,28.38c0.11,0.69,0.25,1.34,0.41,1.95c0.17,0.61,0.43,1.14,0.78,1.61
					c0.36,0.47,0.84,0.84,1.45,1.12c0.61,0.28,1.43,0.43,2.44,0.43c0.93,0,1.74-0.11,2.43-0.33c0.69-0.22,1.3-0.56,1.83-1
					c0.53-0.45,1.01-0.98,1.44-1.61c0.43-0.63,0.88-1.35,1.36-2.16l16.37-28.38c0.13-0.24,0.33-0.54,0.6-0.88
					c0.27-0.34,0.5-0.52,0.71-0.52c0.12,0,0.26,0.07,0.42,0.21c0.15,0.14,0.18,0.5,0.07,1.06l-6.65,33.12h8.02l7.24-37.44
					C172.27,5.66,171.9,4.24,170.77,3.35z"/>
			</g>
		</g>
		<g>
			<g>
				<path class="st0" d="M82.4,61.66l2.24-11.87h2.46c1.78,0,3.04,0.14,3.78,0.43c1.08,0.4,1.84,1.1,2.3,2.1
					c0.46,1,0.56,2.18,0.3,3.56c-0.22,1.19-0.68,2.24-1.36,3.14c-0.68,0.9-1.48,1.57-2.38,2c-0.9,0.43-2.09,0.65-3.57,0.65H82.4z
					 M83.75,60.54h1.37c1.64,0,2.8-0.1,3.47-0.31c0.95-0.29,1.75-0.81,2.4-1.57c0.65-0.76,1.08-1.68,1.29-2.77
					c0.22-1.14,0.12-2.12-0.28-2.93c-0.4-0.81-1.07-1.37-2-1.67c-0.7-0.23-1.9-0.34-3.61-0.34h-0.84L83.75,60.54z"/>
				<path class="st0" d="M100.07,49.79h1.19l-2.24,11.87h-1.19L100.07,49.79z"/>
				<path class="st0" d="M118.36,51.78l-1.08,0.87c-0.54-0.65-1.17-1.14-1.9-1.48c-0.72-0.34-1.46-0.5-2.21-0.5
					c-0.93,0-1.86,0.23-2.79,0.69c-0.93,0.46-1.7,1.08-2.31,1.86c-0.61,0.78-1,1.61-1.16,2.48c-0.17,0.89-0.09,1.74,0.24,2.55
					c0.33,0.8,0.87,1.44,1.63,1.9c0.76,0.46,1.64,0.69,2.65,0.69c1.22,0,2.32-0.34,3.29-1.03c0.97-0.69,1.64-1.58,2.01-2.68h-3.78
					l0.22-1.15h5.12c-0.36,1.83-1.18,3.29-2.46,4.37c-1.28,1.08-2.83,1.62-4.63,1.62c-2.19,0-3.79-0.75-4.79-2.24
					c-0.77-1.15-1.01-2.48-0.72-3.99c0.21-1.12,0.69-2.17,1.44-3.14c0.75-0.97,1.66-1.73,2.75-2.27c1.09-0.55,2.25-0.82,3.5-0.82
					c1.01,0,1.92,0.18,2.74,0.54C116.91,50.4,117.66,50.98,118.36,51.78z"/>
				<path class="st0" d="M124.83,49.79h1.19l-2.24,11.87h-1.19L124.83,49.79z"/>
				<path class="st0" d="M130.64,50.95l0.22-1.16h6.5l-0.22,1.16h-2.65l-2.02,10.71h-1.21l2.02-10.71H130.64z"/>
				<path class="st0" d="M147.23,49.79l3.3,11.87h-1.28l-1.13-3.91H143l-2.59,3.91h-1.32l7.85-11.87H147.23z M146.61,52.31
					l-2.84,4.3h4.06L146.61,52.31z"/>
				<path class="st0" d="M157.91,49.79h1.19l-2.02,10.72h4.57l-0.22,1.15h-5.75L157.91,49.79z"/>
			</g>
		</g>
	</g>
	<g>
		<g>
			<g>
				<polygon class="st0" points="71.23,2.5 61.68,2.5 51.29,13.45 54.75,19.85 				"/>
				<polygon class="st0" points="53.11,28.3 47.05,34.68 52.66,45.04 62.17,45.04 				"/>
				<path class="st0" d="M51.96,26.09l1.95-2.05l-1.15-2.13l-3.51-6.5h0L40.91,0H25.17l12.97,23.99L0,64.16h15.81L45.97,32.4l0,0
					L51.96,26.09z M44.81,30.32L15.05,61.66H5.51l35.75-37.65L29.62,2.5h9.54l8.12,15.02l3.51,6.5L44.81,30.32z"/>
			</g>
		</g>
	</g>
</g>
</svg>
